<?xml version="1.0" standalone="no"?>
<!DOCTYPE svg PUBLIC "-//W3C//DTD SVG 20010904//EN"
 "http://www.w3.org/TR/2001/REC-SVG-20010904/DTD/svg10.dtd">
<svg version="1.0" xmlns="http://www.w3.org/2000/svg"
 width="400.000000pt" height="400.000000pt" viewBox="0 0 400.000000 400.000000"
 preserveAspectRatio="xMidYMid meet">

<g transform="translate(0.000000,400.000000) scale(0.100000,-0.100000)"
fill="#000000" stroke="none">
<path d="M2231 3926 c-6 -7 -27 -11 -47 -9 -21 1 -83 -5 -138 -13 -56 -9 -113
-16 -128 -17 -16 0 -28 -4 -28 -8 0 -5 -7 -9 -15 -9 -8 0 -15 -4 -15 -10 0 -5
-18 -13 -40 -16 -22 -4 -44 -12 -50 -19 -6 -8 -33 -19 -60 -26 -29 -7 -75 -33
-116 -63 -37 -28 -83 -60 -104 -71 -20 -11 -51 -33 -69 -48 -18 -15 -43 -30
-57 -33 -13 -3 -24 -12 -24 -19 0 -8 -10 -15 -22 -17 -15 -2 -24 -11 -26 -25
-2 -13 -7 -23 -12 -23 -7 0 -94 -125 -96 -138 0 -4 -6 -20 -13 -37 -7 -16 -15
-43 -17 -60 -2 -16 -8 -55 -13 -85 -6 -30 -15 -89 -22 -130 -6 -41 -15 -93
-20 -115 -16 -74 -21 -248 -10 -329 6 -44 9 -81 6 -84 -2 -3 -27 5 -55 17 -59
25 -92 22 -132 -12 -56 -48 -76 -192 -37 -276 11 -25 31 -90 45 -145 26 -107
55 -155 75 -126 9 12 10 12 5 -4 -4 -13 4 -28 30 -52 29 -28 43 -34 77 -34 52
0 84 21 90 58 2 15 4 0 4 -33 1 -75 20 -228 35 -275 6 -19 26 -65 45 -102 l34
-66 -1 -194 c-1 -106 -5 -229 -8 -272 l-7 -79 -43 -12 c-23 -7 -55 -21 -70
-31 -15 -10 -80 -45 -145 -77 -65 -33 -121 -66 -124 -73 -3 -8 -14 -14 -24
-14 -24 0 -24 -12 0 -34 11 -10 17 -24 14 -32 -3 -8 0 -14 6 -14 6 0 11 -11
11 -24 0 -13 7 -26 15 -30 8 -3 15 -15 15 -26 0 -12 -4 -19 -9 -15 -5 3 -16
-4 -24 -15 l-14 -20 -18 20 c-15 16 -16 23 -6 33 10 9 14 8 22 -6 6 -9 15 -15
20 -11 10 6 -25 77 -53 105 -15 16 -16 16 -21 -2 -3 -10 0 -19 6 -19 6 0 7 -3
4 -7 -9 -9 13 -34 24 -27 15 9 10 -6 -7 -24 -15 -14 -17 -14 -26 1 -13 25 -43
21 -62 -8 -9 -14 -14 -25 -10 -25 4 0 1 -7 -6 -15 -6 -8 -9 -23 -5 -35 4 -12
1 -28 -7 -38 -12 -16 -11 -16 6 -2 17 14 18 13 13 -5 -5 -14 -1 -24 14 -33 28
-18 37 -7 14 18 -14 15 -17 31 -13 70 3 28 10 56 17 63 11 11 22 1 55 -53 13
-24 13 -26 -3 -27 -12 -1 -23 10 -31 33 -8 21 -17 30 -21 23 -8 -14 9 -71 25
-81 8 -5 7 -8 -1 -8 -23 0 -14 -15 17 -29 24 -10 28 -16 20 -26 -9 -10 -6 -17
12 -26 13 -7 26 -12 31 -11 12 3 8 -15 -6 -27 -15 -12 -37 3 -37 25 0 16 -42
42 -58 36 -10 -3 -10 -7 -1 -18 6 -8 15 -11 20 -8 14 8 11 -12 -4 -24 -19 -16
-36 0 -39 35 -2 24 -5 29 -15 22 -7 -6 -17 -8 -22 -5 -17 11 -25 97 -11 133
16 46 6 53 -19 12 -15 -25 -17 -35 -8 -41 9 -6 9 -8 0 -8 -9 0 -13 -17 -13
-50 0 -36 4 -50 14 -50 15 0 29 -27 21 -40 -9 -15 -35 1 -35 20 0 11 -5 22
-10 25 -6 3 -15 27 -21 51 -9 33 -14 42 -21 32 -7 -9 -8 -4 -4 15 4 15 2 27
-4 27 -17 0 -4 -112 14 -122 20 -11 21 -38 1 -38 -8 0 -15 7 -15 15 0 9 -7 27
-16 40 -10 15 -13 32 -9 46 5 14 4 19 -4 15 -7 -4 -11 0 -11 12 0 29 -10 33
-34 11 l-21 -20 -5 21 c-5 22 -5 22 -23 2 -16 -18 -16 -20 -1 -26 12 -4 14
-13 10 -32 -4 -15 -3 -23 3 -20 10 6 51 -65 51 -89 0 -23 -19 -18 -30 8 -6 12
-14 29 -20 37 -5 8 -19 39 -32 68 -25 58 -46 68 -44 22 1 -18 6 -30 15 -30 9
0 12 -8 8 -26 -3 -18 0 -27 12 -32 27 -10 43 -30 28 -35 -8 -3 -4 -12 11 -27
21 -20 22 -24 9 -37 -18 -18 -39 -9 -30 13 3 8 -2 23 -11 33 -9 10 -30 49 -46
87 -16 39 -36 70 -45 72 -15 3 -15 1 0 -28 9 -18 13 -40 9 -53 -3 -12 -3 -19
1 -15 4 4 15 0 24 -9 11 -12 13 -17 3 -21 -19 -6 -14 -19 9 -25 15 -4 20 -11
17 -25 -4 -15 -1 -18 13 -15 18 5 21 -10 6 -34 -5 -8 -3 -13 7 -13 9 0 16 -4
16 -10 0 -20 3 -25 22 -38 10 -7 15 -18 12 -24 -5 -8 -1 -9 10 -5 12 5 19 2
23 -11 2 -10 13 -19 25 -19 20 -2 20 -1 2 20 -11 12 -21 24 -25 27 -3 3 -15
22 -28 43 -20 33 -21 38 -6 43 10 4 22 -1 31 -15 19 -27 39 -27 57 0 14 20 15
19 25 -10 11 -32 35 -34 46 -5 8 21 21 17 53 -16 15 -17 34 -30 40 -30 7 0 12
-6 10 -12 -1 -7 4 -12 10 -11 7 2 12 0 12 -5 -4 -21 2 -35 10 -27 5 6 7 25 4
42 -4 28 -9 32 -27 27 -17 -4 -22 0 -23 15 -2 28 18 26 53 -4 35 -30 44 -31
37 -6 -8 30 11 32 40 5 29 -27 42 -31 34 -11 -4 10 2 13 19 9 15 -3 24 -11 24
-23 0 -15 -5 -17 -29 -13 -27 6 -29 4 -24 -15 6 -25 23 -38 23 -19 0 21 86 17
99 -4 10 -16 7 -18 -25 -18 -21 0 -33 -4 -29 -10 3 -5 -2 -10 -12 -11 -16 0
-16 -1 2 -9 27 -12 37 -12 30 -1 -3 5 -1 12 5 16 5 3 10 1 10 -4 0 -6 7 -11
15 -11 8 0 15 -4 15 -10 0 -5 8 -10 18 -10 14 0 15 2 2 10 -13 8 -12 10 3 10
9 0 17 5 17 10 0 6 5 10 10 10 6 0 10 -9 10 -20 0 -21 24 -27 35 -9 7 10 46
-16 43 -30 -3 -18 17 -41 37 -41 13 0 27 -4 30 -10 4 -6 220 -10 616 -10 535
0 609 2 609 15 0 8 6 16 13 17 18 2 30 4 57 12 31 8 87 17 120 19 14 1 31 7
38 14 7 7 22 13 31 13 38 0 90 30 111 65 12 19 27 38 33 42 23 15 57 72 47 78
-15 10 -12 52 5 59 8 3 15 14 15 25 0 30 11 52 23 44 6 -4 8 0 4 9 -3 9 1 25
9 37 8 12 13 25 9 30 -3 5 2 17 11 25 8 9 11 16 4 16 -6 0 -10 6 -9 12 3 27
-1 48 -11 48 -5 0 -10 -13 -10 -30 0 -36 -19 -41 -21 -5 -3 45 -4 50 -9 55 -3
3 -13 22 -23 44 -14 30 -22 37 -38 33 -34 -9 -59 6 -138 82 -41 40 -86 78
-101 86 l-27 14 5 -47 c2 -26 1 -44 -3 -40 -9 9 -10 326 0 444 7 88 7 89 54
141 67 73 128 202 145 303 5 29 17 60 24 60 4 0 16 -7 26 -15 37 -28 64 -18
126 45 33 34 60 66 60 73 0 7 7 25 15 40 8 15 11 35 8 44 -4 11 -3 14 5 9 7
-4 13 -1 13 6 5 46 7 57 18 74 12 18 12 18 6 -1 -12 -38 11 -1 35 55 19 45 22
66 17 122 -9 111 -40 151 -111 147 -25 -2 -48 0 -52 4 -7 7 14 95 26 112 27
37 67 293 69 445 1 30 2 86 2 124 1 79 -18 184 -37 207 -8 8 -14 20 -14 25 0
16 -57 123 -84 158 -13 18 -45 55 -71 82 -26 27 -58 65 -73 84 -14 19 -38 46
-52 60 -44 45 -178 150 -190 150 -7 0 -21 11 -32 25 -11 14 -24 22 -29 19 -6
-3 -18 1 -27 9 -31 27 -101 57 -169 73 -37 8 -72 19 -78 23 -21 16 -44 19 -54
7z m-101 -731 c11 3 20 11 20 16 0 6 5 7 10 4 6 -4 8 -11 5 -16 -4 -5 -1 -9 5
-9 7 0 10 -7 7 -15 -4 -8 -2 -17 2 -20 5 -2 11 4 14 15 3 12 14 20 26 20 12 0
20 5 19 12 -3 12 66 30 92 23 8 -3 32 -6 52 -9 21 -2 42 -7 47 -10 6 -4 27 -7
48 -8 46 -2 71 -22 53 -42 -8 -11 -8 -16 3 -23 8 -4 17 -24 20 -43 17 -99 17
-100 46 -93 23 6 24 4 13 -10 -8 -9 -23 -17 -35 -19 -13 -2 -23 -11 -25 -23
-3 -19 -2 -19 11 -2 8 9 18 17 22 17 15 0 34 -35 35 -62 0 -16 5 -28 10 -28 6
0 10 -5 10 -12 0 -9 -3 -9 -12 0 -19 19 -30 14 -23 -9 5 -14 3 -19 -3 -15 -6
4 -29 9 -52 12 -34 5 -43 2 -60 -18 l-20 -23 -6 22 c-6 20 -11 22 -53 17 -56
-7 -84 -34 -74 -72 4 -16 2 -23 -5 -18 -6 3 -24 -14 -41 -39 -32 -47 -40 -98
-26 -167 7 -34 5 -39 -19 -48 -22 -8 -24 -13 -17 -32 4 -13 6 -29 3 -37 -2 -7
8 -23 23 -36 16 -12 29 -28 31 -36 1 -8 3 -18 4 -24 7 -29 -1 -75 -12 -72 -23
4 -21 -60 1 -82 12 -12 17 -21 11 -21 -22 0 -8 -33 30 -70 43 -42 46 -50 30
-80 -8 -16 -15 -17 -42 -9 -18 5 -40 18 -48 29 -18 24 -40 19 -77 -17 -17 -18
-31 -23 -46 -19 -12 3 -37 6 -54 6 -28 0 -35 5 -47 35 -15 35 -61 59 -75 38
-19 -30 -91 -33 -91 -4 0 14 30 41 46 41 8 0 14 7 14 15 0 9 8 19 19 23 22 8
76 70 68 78 -3 3 1 24 9 46 8 22 14 52 14 67 0 26 33 58 56 53 6 -1 15 18 21
43 7 29 7 45 0 45 -5 0 -4 7 3 15 10 13 9 19 -6 38 -11 12 -23 25 -27 28 -4 3
-4 17 2 30 5 13 12 37 16 53 5 23 10 27 30 23 14 -2 25 0 25 4 0 5 -4 9 -10 9
-5 0 -10 7 -10 15 0 8 -5 15 -11 15 -5 0 -8 4 -5 9 3 4 -5 6 -18 4 -21 -4 -23
-1 -24 39 -1 26 -8 48 -18 55 -8 6 -15 20 -14 30 5 48 0 58 -27 57 -16 0 -38
-4 -50 -8 -15 -5 -31 -2 -45 8 -12 9 -30 16 -38 16 -27 0 -42 21 -27 38 10 13
9 15 -10 10 -20 -5 -21 -3 -13 12 14 26 13 30 -12 30 -16 0 -19 3 -11 11 13
13 81 20 89 8 3 -5 10 -9 15 -9 6 0 0 14 -12 31 -22 31 -22 32 -3 42 17 10 16
12 -11 18 l-30 6 33 8 c19 4 36 14 39 21 3 8 18 14 34 14 16 0 29 4 29 8 0 5
13 7 29 4 26 -4 30 0 36 29 l7 33 19 -23 c13 -16 24 -21 39 -16z m-335 -205
c3 -5 1 -10 -4 -10 -6 0 -11 5 -11 10 0 6 2 10 4 10 3 0 8 -4 11 -10z m-1
-307 c4 -3 2 -10 -5 -15 -10 -7 -8 -8 7 -3 16 4 23 0 27 -15 5 -21 -7 -28 -19
-9 -3 6 -17 9 -30 6 -25 -4 -50 15 -40 32 3 5 0 12 -6 15 -7 3 3 3 22 0 19 -4
39 -9 44 -11z m-559 -108 c-4 -59 -10 -75 -27 -75 -10 0 -3 104 8 122 14 23
23 2 19 -47z m1454 39 c2 -2 -29 -3 -70 -3 -54 1 -66 3 -44 9 28 6 105 3 114
-6z m-956 -21 c-7 -2 -19 -2 -25 0 -7 3 -2 5 12 5 14 0 19 -2 13 -5z m-463
-15 c0 -7 -5 -20 -10 -28 -8 -12 -10 -9 -10 13 0 15 5 27 10 27 6 0 10 -6 10
-12z m347 -25 c6 -21 10 -39 8 -41 -5 -5 -63 26 -70 38 -9 14 13 40 34 40 10
0 21 -14 28 -37z m288 17 c9 -10 15 -26 12 -33 -3 -8 -1 -19 5 -25 8 -8 6 -15
-4 -26 -11 -11 -38 -14 -104 -14 l-89 1 75 9 c101 12 126 18 114 26 -16 11
-44 55 -44 69 0 19 14 16 35 -7z m-78 -22 c18 -18 33 -36 33 -40 0 -4 -30 -8
-67 -8 -62 0 -66 1 -46 15 11 8 24 26 27 40 8 32 13 32 53 -7z m793 -48 c0 -5
-8 -10 -17 -10 -15 0 -16 2 -3 10 19 12 20 12 20 0z m-210 -15 c0 -8 -4 -15
-10 -15 -5 0 -10 7 -10 15 0 8 5 15 10 15 6 0 10 -7 10 -15z m100 -6 c0 -11 5
-29 11 -41 10 -18 8 -19 -11 -13 -26 8 -49 13 -67 14 -7 1 -13 8 -13 17 0 10
6 14 14 11 8 -3 22 3 32 14 22 25 34 24 34 -2z m-250 1 c0 -5 -5 -10 -11 -10
-5 0 -7 5 -4 10 3 6 8 10 11 10 2 0 4 -4 4 -10z m467 -39 c7 -28 -10 -41 -56
-41 -32 0 -33 1 -18 18 8 9 18 29 22 44 6 24 9 26 26 15 11 -7 22 -23 26 -36z
m278 27 c-2 -7 -6 -62 -9 -121 -4 -108 -15 -159 -17 -79 -3 178 0 212 16 212
8 0 12 -6 10 -12z m-1485 -40 c30 -14 85 -32 123 -39 61 -11 73 -11 120 6 28
10 59 26 67 35 8 9 27 20 43 24 25 6 27 5 15 -13 -6 -11 -31 -32 -55 -47 -28
-17 -42 -33 -38 -42 3 -7 5 -18 5 -23 0 -6 9 -8 20 -4 15 5 18 3 14 -8 -3 -8
2 -37 11 -65 16 -49 16 -50 -9 -90 -14 -22 -48 -64 -75 -94 -28 -29 -51 -56
-51 -60 0 -5 -7 -8 -15 -8 -8 0 -16 -8 -16 -17 -1 -17 -2 -17 -6 0 -4 16 -40
23 -94 19 -12 -1 -15 4 -12 18 6 22 -7 26 -24 9 -9 -9 -16 -8 -27 4 -15 14
-14 16 2 20 13 3 11 7 -13 18 -40 19 -84 67 -91 98 -2 14 -9 39 -14 55 -5 16
-7 33 -3 39 3 5 7 26 7 46 3 65 38 157 56 148 3 -2 30 -15 60 -29z m949 -14
c2 -2 -14 -1 -35 2 l-39 5 28 -21 c15 -12 47 -39 70 -61 54 -49 115 -63 235
-54 72 6 90 5 100 -8 18 -22 24 -147 7 -153 -19 -8 -26 -46 -12 -63 7 -9 8
-16 2 -18 -31 -11 -40 -25 -44 -65 -1 -5 -10 -8 -20 -8 -10 0 -21 -7 -25 -15
-3 -9 -18 -15 -40 -15 -19 0 -41 -6 -48 -12 -14 -14 -88 -18 -88 -5 0 4 -21 7
-46 7 -25 0 -43 -4 -40 -9 3 -5 0 -14 -8 -20 -11 -9 -15 -7 -19 9 -6 24 -36
38 -46 21 -6 -9 -11 -8 -20 3 -12 14 -10 53 3 87 4 9 0 36 -8 60 -18 53 -15
161 5 185 12 15 14 15 21 -7 5 -15 6 -8 3 19 -4 33 -2 42 10 42 14 0 14 3 0
24 -25 37 -37 89 -23 97 9 6 59 -12 77 -27z m-1399 -85 c0 -3 -21 -13 -46 -22
l-46 -15 7 45 c11 77 14 79 51 37 19 -21 34 -41 34 -45z m1445 63 c-3 -3 -11
0 -18 7 -9 10 -8 11 6 5 10 -3 15 -9 12 -12z m-1294 -81 c-6 -45 -8 -94 -5
-111 4 -19 2 -30 -5 -30 -13 0 -13 -2 -15 78 -2 34 1 62 6 62 5 0 6 6 1 13 -9
15 -5 48 9 65 19 22 20 6 9 -77z m1407 62 c-10 -2 -28 -2 -40 0 -13 2 -5 4 17
4 22 1 32 -1 23 -4z m-1761 -45 c-3 -8 -6 -5 -6 6 -1 11 2 17 5 13 3 -3 4 -12
1 -19z m2233 -64 c0 -6 -65 -34 -81 -34 -6 0 -9 6 -6 13 2 6 9 12 15 12 5 0
14 3 18 8 8 8 54 10 54 1z m-1988 -111 c-8 -35 -7 -42 15 -61 14 -12 20 -22
15 -22 -5 0 -15 7 -22 15 -7 8 -18 15 -26 15 -15 0 -34 30 -34 55 0 21 54 68
58 51 2 -7 -1 -31 -6 -53z m1979 35 c0 -7 2 -59 5 -116 3 -78 1 -109 -10 -130
-15 -26 -15 -25 -10 23 7 59 -17 124 -47 132 -26 7 -24 36 7 72 26 32 54 41
55 19z m48 -80 c-1 -13 -5 -34 -9 -48 -7 -20 -8 -16 -9 23 -1 26 4 47 9 47 6
0 10 -10 9 -22z m-162 -30 c-3 -7 -5 -2 -5 12 0 14 2 19 5 13 2 -7 2 -19 0
-25z m-1785 -23 c3 -13 1 -22 -3 -19 -9 5 -13 44 -5 44 2 0 6 -11 8 -25z
m1798 -89 c0 -47 -19 -72 -46 -62 -14 6 -15 9 -1 29 8 12 18 37 22 55 9 44 25
30 25 -22z m-1145 -36 c-3 -5 2 -10 12 -11 14 0 13 -2 -5 -10 -17 -6 -27 -5
-38 5 -12 13 -11 15 8 19 13 2 24 5 26 6 2 0 0 -3 -3 -9z m345 -23 c0 -53 -17
-67 -90 -73 -78 -7 -107 7 -96 49 6 24 9 26 67 25 44 -1 65 4 77 16 26 26 42
20 42 -17z m527 17 c-3 -3 -12 -4 -19 -1 -8 3 -5 6 6 6 11 1 17 -2 13 -5z
m-187 -14 c0 -5 -7 -10 -15 -10 -8 0 -15 5 -15 10 0 6 7 10 15 10 8 0 15 -4
15 -10z m-152 -19 c12 -11 22 -27 23 -38 0 -15 2 -14 9 5 12 28 28 28 39 0 5
-14 10 -18 15 -10 4 7 12 10 17 6 6 -3 1 -13 -11 -21 -18 -13 -24 -13 -30 -2
-7 11 -12 10 -28 -4 -10 -9 -24 -17 -30 -17 -17 0 -74 36 -72 46 1 4 -6 11
-16 14 -13 5 -10 10 17 23 42 20 39 20 67 -2z m652 -6 c-7 -8 -17 -12 -23 -8
-6 4 -3 9 9 14 27 11 28 11 14 -6z m-36 -41 c13 -5 14 -9 5 -20 -13 -16 -39
-19 -39 -4 0 6 -8 10 -17 11 -12 1 -10 4 7 9 14 4 26 8 27 9 1 1 9 -2 17 -5z
m-957 -29 c18 -9 53 -14 94 -13 51 2 76 -3 124 -25 33 -16 62 -31 65 -35 3 -4
14 -12 24 -18 40 -22 26 -32 -16 -12 -44 22 -67 24 -130 12 -44 -7 -92 2 -83
16 4 6 -8 10 -27 10 -19 0 -39 5 -45 11 -10 10 -26 14 -88 22 -12 1 -19 -3
-17 -10 1 -7 -5 -13 -13 -13 -8 0 -14 6 -12 13 1 8 -16 14 -53 17 l-55 5 55
12 c30 7 64 14 75 16 41 9 73 7 102 -8z m465 -65 c9 0 8 -3 -2 -10 -16 -10
-29 8 -29 40 0 8 4 5 9 -7 5 -13 15 -23 22 -23z m435 18 c15 -6 34 -10 42 -9
11 2 11 -1 -2 -13 -20 -20 -51 -20 -71 0 -32 32 -17 42 31 22z m-1040 -133
c15 5 30 8 33 8 3 -1 52 -4 110 -8 182 -11 191 -12 203 -25 7 -7 7 -10 2 -7
-6 3 -17 2 -24 -2 -9 -6 -4 -8 13 -8 15 0 29 3 32 8 3 5 24 9 47 9 40 -1 41
-1 18 -14 -28 -16 -40 -73 -16 -73 8 0 15 4 15 9 0 4 6 8 14 8 8 0 16 7 20 15
3 8 10 15 16 15 5 0 10 -7 10 -15 0 -8 -4 -15 -10 -15 -5 0 -19 -8 -30 -17
-11 -10 -24 -18 -28 -18 -4 -1 -25 -9 -46 -20 -31 -15 -62 -19 -145 -19 -112
-1 -145 5 -201 31 -19 10 -41 16 -47 15 -7 -2 -23 6 -35 18 l-23 21 23 6 c23
6 30 27 12 38 -6 4 -8 11 -5 16 4 5 2 9 -3 9 -5 0 -12 9 -15 21 -5 20 -5 20
13 4 14 -13 27 -15 47 -10z m-237 3 c0 -7 3 -23 6 -35 5 -17 2 -23 -9 -23 -14
0 -30 54 -19 65 10 9 22 5 22 -7z m80 2 c0 -5 -2 -10 -4 -10 -3 0 -8 5 -11 10
-3 6 -1 10 4 10 6 0 11 -4 11 -10z m91 -70 c-8 -4 -21 -5 -30 -2 -12 5 -10 8
9 12 29 8 40 3 21 -10z m271 -193 c110 -6 158 -22 158 -54 0 -10 7 -14 18 -11
13 4 18 -2 20 -30 2 -27 -1 -33 -13 -28 -11 4 -19 -3 -27 -24 -5 -17 -16 -31
-24 -31 -27 -3 -32 -4 -40 -11 -12 -12 -64 -9 -64 3 0 6 -7 9 -15 6 -8 -4 -37
0 -64 7 -28 7 -52 9 -53 5 -2 -4 -16 -11 -32 -15 -22 -5 -27 -4 -21 5 5 9 1
12 -11 10 -11 -1 -26 0 -34 3 -8 3 -33 10 -55 14 -33 7 -46 18 -72 58 -30 46
-35 75 -11 60 8 -5 9 -1 4 11 -11 30 13 36 124 31 58 -2 153 -7 212 -9z m405
-369 c-3 -7 -5 -2 -5 12 0 14 2 19 5 13 2 -7 2 -19 0 -25z m-2 -28 c8 0 15 -5
15 -11 0 -5 -4 -7 -10 -4 -6 4 -10 -5 -10 -19 0 -14 -4 -26 -10 -26 -14 0 -12
-37 3 -44 10 -5 10 -7 0 -12 -24 -11 -14 -39 18 -51 17 -7 28 -16 25 -21 -3
-6 1 -15 9 -22 13 -10 15 -9 15 9 0 11 5 21 10 21 6 0 10 -5 10 -12 0 -6 7 -4
18 5 18 17 42 23 42 11 0 -9 -28 -34 -38 -34 -5 0 -12 -9 -15 -20 -4 -15 0
-20 13 -20 21 0 35 -29 20 -44 -14 -14 -12 -26 5 -26 19 0 19 -27 1 -46 -14
-14 -11 -48 6 -71 5 -6 6 -23 2 -37 -4 -15 -2 -26 4 -26 6 0 16 -25 22 -56 10
-47 9 -62 -5 -97 -28 -71 -123 -211 -159 -235 -31 -21 -38 -22 -76 -12 -33 9
-52 8 -97 -5 -45 -13 -75 -15 -147 -9 -50 4 -122 7 -161 7 -216 -5 -263 -3
-325 7 -45 8 -88 23 -124 45 -30 18 -58 30 -62 26 -4 -3 -4 0 0 7 5 7 -2 15
-17 21 -14 6 -28 15 -32 21 -3 5 -11 7 -17 4 -6 -4 -8 -2 -5 4 4 5 -11 30 -33
53 -42 45 -51 65 -25 55 9 -3 15 0 15 8 0 8 -6 16 -14 19 -7 3 -17 23 -20 44
-4 21 -14 57 -22 81 -14 43 -11 68 7 57 5 -4 9 4 9 17 1 20 2 21 11 6 5 -10
18 -18 27 -18 14 0 15 2 2 10 -8 5 -11 12 -7 16 3 4 13 1 22 -6 8 -7 15 -8 15
-2 0 5 -7 12 -15 16 -8 3 -15 10 -15 16 0 17 25 11 51 -11 23 -20 24 -20 27
-2 2 10 11 23 19 30 9 7 13 19 10 28 -4 8 -2 15 4 15 6 0 10 10 9 23 -1 12 -2
33 -1 47 l1 25 13 -24 c6 -13 27 -31 44 -40 37 -18 46 -53 12 -44 -16 4 -20 2
-17 -8 3 -8 13 -14 24 -14 13 0 22 -11 29 -32 6 -18 20 -45 31 -60 11 -16 26
-43 32 -62 19 -54 40 -72 66 -58 11 7 24 16 27 20 4 5 15 3 26 -4 16 -10 26
-9 52 2 37 16 37 20 11 44 -11 10 -20 26 -20 36 0 10 -9 20 -20 24 -13 4 -19
13 -16 28 2 12 -1 28 -6 35 -7 8 -7 12 0 12 6 0 9 13 7 30 -3 24 0 30 16 30
10 0 19 5 19 10 0 6 15 8 40 4 27 -5 40 -3 40 5 0 8 5 9 19 1 13 -7 22 -7 26
0 3 5 19 10 36 10 16 0 29 5 29 11 0 6 -9 9 -20 6 -13 -3 -20 0 -20 9 0 8 -4
14 -10 14 -5 0 -10 -4 -10 -10 0 -5 -12 -10 -27 -9 -27 0 -27 1 -5 9 26 11 30
20 4 14 -9 -3 -28 0 -42 5 -20 8 -4 10 70 9 52 -1 115 2 139 7 32 6 42 5 37
-3 -4 -7 -2 -12 3 -12 6 0 11 -4 11 -10 0 -5 -7 -10 -15 -10 -8 0 -15 -4 -15
-10 0 -16 38 -11 48 6 8 14 10 13 15 -5 3 -11 1 -24 -4 -27 -11 -6 -2 -24 12
-24 5 0 9 9 9 20 0 11 5 20 11 20 6 0 9 -7 6 -15 -4 -8 -2 -17 3 -20 12 -8 52
33 45 45 -8 12 18 40 37 40 11 0 11 2 0 9 -11 7 -11 9 2 14 9 4 13 13 10 22
-4 10 0 15 12 15 11 0 29 17 44 40 13 22 28 40 32 40 4 0 8 9 8 20 0 11 6 20
14 20 8 0 17 16 21 37 9 49 16 59 27 39 5 -9 16 -16 23 -16z m-478 -126 c-3
-3 -12 -4 -19 -1 -8 3 -5 6 6 6 11 1 17 -2 13 -5z m36 -21 c-7 -2 -21 -2 -30
0 -10 3 -4 5 12 5 17 0 24 -2 18 -5z m7 -23 c0 -5 -5 -10 -11 -10 -5 0 -7 5
-4 10 3 6 8 10 11 10 2 0 4 -4 4 -10z m-460 -99 c0 -19 -20 -22 -42 -7 -22 16
-22 16 10 16 17 0 32 -4 32 -9z m1320 -51 c0 -5 -2 -10 -4 -10 -3 0 -8 5 -11
10 -3 6 -1 10 4 10 6 0 11 -4 11 -10z m-105 -38 c-3 -3 -11 0 -18 7 -9 10 -8
11 6 5 10 -3 15 -9 12 -12z m-1385 -8 c0 -8 -5 -12 -10 -9 -6 4 -8 11 -5 16 9
14 15 11 15 -7z m-492 -102 c-2 -11 14 -45 34 -74 10 -14 18 -31 18 -37 0 -17
-26 -13 -41 6 -9 11 -10 14 -2 9 20 -11 4 22 -23 49 -24 25 -23 68 2 58 7 -3
13 -8 12 -11z m-53 -32 c-3 -5 8 -18 25 -29 20 -12 27 -21 20 -26 -8 -5 -7
-13 4 -30 9 -13 13 -31 10 -39 -4 -11 0 -16 11 -16 12 0 15 5 10 20 -5 16 -2
20 17 20 18 0 20 -2 8 -10 -13 -8 -12 -10 3 -10 17 0 24 -25 10 -33 -5 -2 -25
-7 -46 -11 -37 -7 -37 -6 -31 18 4 19 2 28 -10 32 -9 3 -16 12 -16 20 0 7 -11
25 -25 40 -24 26 -35 61 -16 49 5 -3 12 -1 16 5 3 5 8 10 11 10 3 0 2 -4 -1
-10z m-315 -29 c0 -11 -4 -22 -9 -25 -11 -7 -23 22 -15 35 9 16 24 10 24 -10z
m137 -3 c-3 -8 -6 -5 -6 6 -1 11 2 17 5 13 3 -3 4 -12 1 -19z m7 -34 c3 -8 2
-12 -4 -9 -6 3 -10 10 -10 16 0 14 7 11 14 -7z m-115 -8 c8 -10 8 -16 -2 -25
-16 -13 -27 -5 -27 21 0 21 13 23 29 4z m35 -88 c-10 -15 -34 19 -27 38 4 12
8 11 20 -6 8 -11 11 -25 7 -32z m129 27 c1 -17 46 -47 58 -39 8 4 9 3 5 -4 -3
-6 3 -16 15 -23 16 -8 18 -13 9 -19 -18 -11 -37 -2 -43 21 -4 13 -14 19 -32
19 -24 0 -27 3 -23 25 3 13 1 26 -4 29 -5 2 -4 4 3 3 6 -2 11 -7 12 -12z m-60
-20 c8 -19 -13 -31 -24 -14 -13 20 -11 29 5 29 8 0 16 -7 19 -15z m177 -27 c0
-18 -33 -3 -41 20 -8 21 -8 22 16 6 14 -9 25 -21 25 -26z m-284 23 c-3 -5 1
-14 9 -21 12 -10 13 -16 4 -26 -9 -11 -15 -11 -25 -3 -17 14 -18 31 -2 47 14
14 22 16 14 3z m440 -31 c28 0 4 -19 -39 -32 -62 -18 -91 -16 -94 7 -2 11 0
15 3 9 6 -13 44 -7 44 7 0 5 -9 9 -19 9 -11 0 -23 5 -27 12 -5 8 -2 9 10 5 10
-4 22 -7 27 -7 5 0 14 -10 19 -22 l9 -23 7 22 c3 13 10 20 15 17 5 -3 12 3 16
13 7 17 8 17 11 1 2 -10 10 -18 18 -18z m-357 -4 c8 -10 9 -16 1 -21 -13 -8
-30 3 -30 21 0 18 14 18 29 0z m79 -24 c-9 -11 -14 -11 -26 2 -20 20 -7 39 18
24 14 -9 16 -15 8 -26z m299 -23 c-4 -16 -3 -18 7 -9 10 7 17 6 27 -6 20 -24
19 -42 -2 -47 -21 -6 -26 8 -6 17 6 3 -5 5 -25 4 -43 -3 -56 6 -39 26 9 11 9
15 -1 20 -7 3 -3 3 10 0 12 -3 22 -1 22 5 0 6 3 11 6 11 4 0 4 -9 1 -21z m68
-79 c-3 -5 0 -10 7 -10 9 0 9 -3 -2 -10 -22 -14 -50 -12 -50 4 0 13 14 21 43
25 5 0 5 -3 2 -9z"/>
<path d="M2070 3170 c0 -5 7 -7 15 -4 8 4 15 8 15 10 0 2 -7 4 -15 4 -8 0 -15
-4 -15 -10z"/>
<path d="M2151 3164 c0 -11 3 -14 6 -6 3 7 2 16 -1 19 -3 4 -6 -2 -5 -13z"/>
<path d="M2537 3039 c7 -7 15 -10 18 -7 3 3 -2 9 -12 12 -14 6 -15 5 -6 -5z"/>
<path d="M2522 2991 c4 -13 18 -16 19 -4 0 4 -5 9 -11 12 -7 2 -11 -2 -8 -8z"/>
<path d="M2205 2710 c-4 -6 -10 -8 -15 -5 -16 10 -20 -13 -5 -25 13 -10 19 -9
35 5 11 10 20 22 20 27 0 11 -28 10 -35 -2z"/>
<path d="M2261 1524 c0 -11 3 -14 6 -6 3 7 2 16 -1 19 -3 4 -6 -2 -5 -13z"/>
<path d="M2058 673 c7 -3 16 -2 19 1 4 3 -2 6 -13 5 -11 0 -14 -3 -6 -6z"/>
<path d="M2100 670 c19 -13 30 -13 30 0 0 6 -10 10 -22 10 -19 0 -20 -2 -8
-10z"/>
<path d="M1538 643 c6 -2 18 -2 25 0 6 3 1 5 -13 5 -14 0 -19 -2 -12 -5z"/>
<path d="M2210 620 c0 -5 7 -10 15 -10 8 0 15 5 15 10 0 6 -7 10 -15 10 -8 0
-15 -4 -15 -10z"/>
<path d="M1400 510 c0 -6 7 -10 15 -10 8 0 15 2 15 4 0 2 -7 6 -15 10 -8 3
-15 1 -15 -4z"/>
<path d="M1504 449 c-3 -6 -1 -16 5 -22 8 -8 11 -5 11 11 0 24 -5 28 -16 11z"/>
<path d="M1577 303 c3 -10 10 -23 15 -29 5 -7 8 -16 7 -20 -1 -5 0 -18 1 -29
1 -13 5 -8 10 14 6 25 4 41 -7 58 -18 27 -35 31 -26 6z"/>
<path d="M900 430 c0 -5 7 -10 15 -10 8 0 15 5 15 10 0 6 -7 10 -15 10 -8 0
-15 -4 -15 -10z"/>
<path d="M2994 654 c3 -9 9 -27 12 -40 4 -15 13 -24 26 -24 14 0 18 5 14 16
-3 9 -9 27 -12 40 -4 15 -13 24 -26 24 -14 0 -18 -5 -14 -16z m33 -36 c-3 -8
-6 -5 -6 6 -1 11 2 17 5 13 3 -3 4 -12 1 -19z"/>
<path d="M3075 624 c8 -20 15 -51 15 -70 0 -39 9 -47 33 -29 12 8 14 15 7 20
-5 3 -8 10 -5 15 3 4 -2 13 -10 20 -18 15 -20 40 -3 40 6 0 1 9 -12 20 -34 30
-42 24 -25 -16z"/>
<path d="M3133 617 c3 -12 9 -35 15 -52 48 -144 54 -168 48 -199 -6 -32 -37
-72 -48 -61 -2 3 -3 -9 0 -25 2 -16 9 -27 14 -24 5 3 7 12 4 20 -3 8 5 21 19
30 14 9 28 27 31 40 3 13 10 24 16 24 5 0 6 6 1 13 -8 13 -10 18 -12 43 0 8
-5 13 -10 10 -5 -3 -11 1 -15 9 -3 8 0 15 7 15 8 0 6 4 -3 10 -8 5 -11 10 -6
10 5 0 3 7 -4 15 -7 8 -13 39 -14 69 -1 45 -4 54 -25 64 -21 10 -23 9 -18 -11z"/>
<path d="M3200 582 c0 -17 5 -43 12 -59 6 -15 12 -30 13 -33 1 -3 5 -13 8 -22
4 -10 9 -25 12 -33 2 -8 9 -15 15 -15 7 0 7 6 0 18 -18 31 -38 102 -29 102 16
0 10 26 -11 50 l-20 23 0 -31z"/>
<path d="M3267 562 c-7 -14 5 -112 14 -112 5 0 7 -34 6 -75 -2 -50 0 -74 7
-72 7 2 11 41 11 100 0 80 -3 97 -15 97 -13 0 -13 1 0 10 13 9 13 11 0 20 -10
6 -11 10 -2 10 6 0 12 4 12 9 0 11 -28 23 -33 13z"/>
<path d="M3341 524 c8 -10 9 -18 2 -22 -6 -4 -10 -41 -10 -87 1 -44 -2 -104
-5 -132 -7 -55 -4 -61 15 -40 16 16 18 50 4 59 -9 6 -9 8 0 8 6 0 12 8 12 18
0 9 2 58 4 109 3 74 1 93 -10 97 -23 9 -26 7 -12 -10z"/>
<path d="M3067 514 c-4 -4 -7 -13 -7 -20 0 -8 -11 -38 -25 -68 -14 -30 -25
-58 -25 -61 0 -4 -7 -13 -15 -21 -8 -9 -15 -24 -15 -35 0 -10 -5 -19 -11 -19
-5 0 -7 -5 -3 -12 12 -19 15 -68 5 -68 -5 0 -19 -13 -30 -29 l-21 -29 29 11
c17 6 32 21 36 34 3 13 13 23 21 23 12 0 14 3 6 13 -8 10 -5 16 11 27 12 8 25
13 30 12 4 -1 7 9 7 23 0 26 27 46 39 29 3 -5 12 -10 18 -9 18 0 45 43 37 58
-6 8 -3 8 9 -1 15 -12 16 -11 12 18 -6 46 -10 46 -28 2 -16 -39 -58 -87 -44
-49 3 9 2 17 -3 17 -5 0 -10 8 -13 18 -3 13 -7 10 -17 -13 -8 -16 -22 -39 -31
-50 -17 -19 -19 -24 -19 -43 0 -4 -8 -12 -17 -18 -15 -9 -18 -7 -19 13 -2 17
5 27 22 33 26 10 31 25 12 33 -10 4 -10 6 0 6 6 1 12 8 12 16 0 8 7 15 15 15
10 0 15 10 15 28 0 15 7 40 15 55 14 27 8 76 -8 61z"/>
<path d="M3117 506 c-4 -9 -2 -16 3 -16 6 0 10 -5 10 -11 0 -5 -4 -8 -8 -5 -4
2 -12 -11 -18 -30 -7 -21 -7 -34 -1 -34 5 0 6 -7 3 -16 -5 -14 -4 -15 8 -5 9
8 13 24 11 42 -3 26 -1 29 16 24 18 -6 18 -4 7 22 -17 40 -24 47 -31 29z"/>
<path d="M3404 488 c-4 -14 -2 -24 6 -26 10 -4 10 -6 0 -12 -8 -5 -13 -38 -15
-88 -2 -44 -6 -89 -10 -101 -3 -12 -2 -21 4 -21 14 0 22 15 25 53 2 19 6 39
10 45 3 5 3 17 0 26 -4 10 -1 16 7 16 10 1 9 5 -3 14 -10 7 -18 19 -18 27 0
12 2 12 9 1 11 -18 19 3 15 38 -1 14 -3 31 -3 38 -2 20 -19 14 -27 -10z"/>
<path d="M3468 462 c0 -9 -2 -28 -3 -42 -9 -93 -9 -175 0 -177 6 -1 9 5 7 13
-2 8 2 14 7 14 6 0 8 7 5 15 -4 8 -1 15 4 15 7 0 9 16 6 40 -3 25 -1 40 6 40
6 0 8 5 4 12 -4 7 -7 27 -6 44 3 34 -27 59 -30 26z"/>
<path d="M344 428 c1 -15 7 -30 14 -33 8 -3 11 -13 7 -25 -5 -16 -3 -19 11
-13 14 5 16 2 12 -15 -5 -18 -2 -22 18 -22 28 0 30 7 8 31 -9 10 -17 35 -17
57 -2 27 -6 38 -14 35 -7 -3 -13 -1 -13 4 0 5 -6 10 -13 10 -9 0 -14 -11 -13
-29z"/>
<path d="M3533 409 c0 -27 -3 -52 -6 -56 -13 -13 -7 -21 13 -16 14 4 20 14 20
35 0 17 -4 27 -10 23 -5 -3 -10 -1 -10 5 0 6 7 13 15 16 20 8 19 21 -3 33 -17
9 -18 5 -19 -40z"/>
<path d="M279 448 c-4 -14 -4 -48 0 -48 17 1 31 19 25 33 -5 14 -22 24 -25 15z"/>
<path d="M3600 411 c0 -6 5 -11 10 -11 6 0 10 -5 10 -11 0 -5 -5 -7 -12 -3 -8
5 -9 0 -6 -14 4 -12 2 -25 -3 -28 -5 -3 -9 -13 -8 -22 0 -11 3 -12 6 -4 2 6 9
12 14 12 4 0 6 -7 3 -15 -4 -8 -13 -15 -22 -15 -18 0 -8 -13 13 -16 9 -1 15 6
15 16 0 10 5 22 10 25 7 4 7 13 0 26 -9 15 -7 19 7 19 13 0 15 2 5 9 -7 4 -12
14 -10 21 2 8 -5 16 -14 18 -10 2 -18 -1 -18 -7z"/>
<path d="M301 401 c-7 -5 -10 -14 -7 -20 4 -6 12 -8 18 -5 7 4 8 2 4 -5 -4 -6
-3 -17 2 -24 5 -7 8 -20 6 -30 -1 -12 2 -17 11 -14 8 4 11 -1 8 -13 -3 -11 2
-27 12 -36 9 -9 14 -22 11 -29 -2 -7 3 -12 12 -11 9 0 17 -4 17 -11 0 -6 11
-24 25 -40 14 -15 24 -31 22 -35 -1 -5 5 -8 13 -8 18 0 9 22 -24 57 -12 12
-21 27 -21 32 0 6 -9 26 -20 46 -11 20 -20 42 -20 50 0 8 -4 15 -9 15 -5 0
-11 12 -14 28 -8 39 -29 63 -46 53z"/>
<path d="M157 393 c-13 -13 -7 -32 8 -27 10 4 15 0 15 -11 0 -9 -4 -13 -10
-10 -18 11 -11 -15 9 -31 11 -10 16 -24 14 -35 -4 -13 0 -19 12 -19 15 0 16
-2 4 -17 -13 -15 -12 -16 9 -11 19 5 22 3 17 -13 -4 -13 -2 -19 8 -19 10 0 13
-7 10 -20 -4 -16 -2 -19 11 -14 12 5 16 0 16 -19 0 -21 4 -24 23 -21 12 2 17
2 11 -1 -19 -9 -4 -46 15 -40 12 3 17 -1 18 -15 1 -11 -6 -22 -18 -25 -24 -8
-24 -17 0 -32 16 -10 18 -9 14 6 -2 9 2 23 11 30 12 10 19 8 37 -10 17 -17 19
-23 8 -30 -10 -6 -6 -9 14 -9 32 0 35 15 6 31 -14 7 -19 17 -16 30 3 11 1 16
-5 13 -9 -6 -118 103 -118 119 0 4 -8 17 -18 28 -21 21 -29 37 -63 121 -24 57
-30 64 -42 51z"/>
<path d="M240 391 c0 -7 -4 -9 -10 -6 -18 11 -11 -4 12 -25 12 -11 17 -20 11
-20 -6 0 -14 -7 -17 -16 -5 -13 -2 -15 13 -11 17 4 18 2 11 -19 -8 -20 -6 -24
10 -24 12 0 17 -5 14 -14 -3 -8 0 -17 7 -22 8 -5 10 -3 4 6 -5 9 -4 11 4 6 7
-4 10 -13 8 -19 -1 -5 7 -22 20 -35 13 -14 22 -31 20 -37 -3 -5 8 -11 23 -11
l28 -2 -29 27 c-28 25 -99 156 -99 183 -1 17 -30 56 -30 39z"/>
<path d="M3667 362 c-3 -20 -9 -52 -13 -71 l-7 -34 22 22 c12 12 20 29 17 36
-3 8 0 12 7 9 7 -2 12 5 12 21 0 15 -6 25 -15 25 -12 0 -12 2 -2 9 11 7 11 9
-1 14 -11 4 -16 -4 -20 -31z"/>
<path d="M540 380 c0 -5 5 -10 11 -10 5 0 7 5 4 10 -3 6 -8 10 -11 10 -2 0 -4
-4 -4 -10z"/>
<path d="M89 378 c-7 -25 -4 -34 12 -34 22 0 21 -1 13 20 -5 13 -22 22 -25 14z"/>
<path d="M3738 350 c-7 -44 11 -57 29 -23 9 18 10 30 3 37 -7 7 -10 4 -11 -9
-1 -16 -3 -15 -8 5 -7 24 -8 23 -13 -10z"/>
<path d="M3247 340 c-10 -47 -25 -64 -45 -48 -13 11 -14 8 -8 -19 6 -24 3 -34
-11 -41 -10 -6 -15 -14 -11 -18 4 -4 0 -13 -10 -20 -11 -9 -13 -13 -4 -14 7 0
10 -4 7 -10 -3 -5 -1 -10 4 -10 6 0 11 9 11 20 0 10 10 29 23 41 12 12 16 18
8 14 -9 -5 -12 -4 -8 3 4 5 17 8 30 4 19 -5 20 -3 9 10 -11 14 -11 18 1 25 18
10 27 52 18 78 -6 16 -9 14 -14 -15z"/>
<path d="M20 340 c-12 -8 -12 -10 -1 -10 10 0 11 -3 2 -14 -9 -10 -8 -15 4
-20 8 -3 15 0 15 6 0 18 16 -3 25 -31 5 -15 4 -21 -3 -17 -6 3 -13 2 -17 -4
-4 -6 5 -10 19 -10 14 0 26 -5 26 -11 0 -5 -4 -8 -9 -4 -5 3 -12 1 -16 -5 -4
-6 5 -10 19 -10 19 0 26 -5 26 -20 0 -11 4 -20 9 -20 5 0 7 -9 4 -20 -4 -14 2
-22 21 -30 14 -5 26 -11 26 -14 0 -14 -28 -54 -34 -49 -4 4 -11 1 -16 -6 -5
-9 -8 -1 -8 23 0 24 4 34 12 29 6 -3 7 -2 3 3 -5 5 -23 10 -41 10 -24 1 -33
-3 -32 -14 2 -27 -24 -24 -36 5 l-12 28 -4 -44 c-4 -49 1 -59 21 -43 10 9 16
9 25 0 8 -8 9 -5 5 13 -3 13 -2 21 2 17 4 -4 16 -3 25 2 12 7 18 6 17 -3 -1
-49 3 -58 24 -47 17 10 20 9 17 -7 -3 -16 5 -18 58 -19 55 -1 61 0 57 16 -6
22 32 47 43 28 4 -6 3 -8 -3 -5 -6 4 -8 -3 -5 -19 5 -29 14 -24 18 11 3 32
-24 63 -38 43 -7 -9 -8 -7 -4 8 6 19 1 28 -44 81 -5 7 -10 17 -10 23 0 5 -4
10 -8 10 -5 0 -15 12 -23 28 -32 63 -60 102 -74 102 -8 0 -15 -5 -15 -11 0 -6
7 -8 16 -5 14 5 15 4 5 -8 -13 -16 1 -32 19 -21 6 3 10 -1 10 -10 0 -9 -4 -14
-9 -10 -5 3 -13 0 -16 -6 -5 -7 1 -9 15 -7 13 2 25 -3 28 -11 3 -8 0 -11 -6
-7 -6 3 -13 2 -17 -4 -4 -6 5 -10 19 -10 14 0 26 -5 26 -11 0 -5 -6 -7 -12 -4
-7 4 -4 -1 6 -9 11 -9 16 -16 12 -16 -4 0 -1 -7 8 -15 8 -8 19 -15 24 -15 6 0
12 -7 16 -15 7 -18 -10 -20 -18 -2 -4 9 -2 -16 3 -42 1 -2 7 1 14 7 9 8 13 2
15 -24 2 -30 0 -34 -15 -26 -13 8 -21 4 -36 -15 -18 -22 -21 -23 -35 -9 -22
22 -1 46 23 26 10 -8 15 -9 15 -1 0 6 -4 11 -10 11 -5 0 -10 4 -10 10 0 5 7 7
15 4 11 -5 13 -2 9 10 -3 9 -10 16 -15 16 -5 0 -13 8 -16 18 -4 9 -22 38 -40
63 -18 26 -33 49 -33 53 0 3 -11 24 -25 46 -14 22 -25 46 -25 55 0 17 -9 19
-30 5z m117 -202 c-3 -8 -6 -5 -6 6 -1 11 2 17 5 13 3 -3 4 -12 1 -19z"/>
<path d="M3808 345 c-3 -6 -4 -22 -3 -37 3 -20 0 -25 -11 -21 -8 3 -14 -1 -14
-11 0 -9 -4 -16 -10 -16 -5 0 -10 -6 -10 -13 0 -7 -9 -23 -20 -35 -11 -12 -20
-25 -20 -31 0 -5 -7 -11 -15 -15 -8 -3 -15 -12 -15 -20 0 -7 -7 -17 -16 -20
-10 -4 -14 -14 -11 -26 3 -14 -1 -20 -17 -22 -22 -3 -38 -48 -17 -48 6 0 11 4
11 10 0 5 8 6 17 3 12 -5 15 -2 10 10 -6 16 11 37 28 34 6 -1 11 13 13 31 3
28 6 31 18 21 11 -9 14 -8 14 5 0 9 7 19 16 23 8 3 13 11 10 18 -2 7 6 21 20
31 13 11 24 25 24 33 0 11 -3 11 -15 1 -11 -9 -15 -9 -15 -1 0 6 8 15 18 18 9
4 22 12 27 17 14 15 19 60 7 52 -6 -3 -12 -1 -14 6 -3 7 -7 8 -10 3z"/>
<path d="M3531 311 c-9 -6 -11 -18 -7 -34 4 -16 1 -29 -9 -37 -8 -7 -15 -17
-15 -22 0 -5 -13 -23 -30 -41 -34 -36 -37 -47 -14 -47 14 0 15 -2 3 -17 -13
-15 -12 -15 8 -2 25 15 36 9 27 -14 -3 -9 -15 -15 -27 -14 -18 2 -21 -3 -19
-25 3 -24 0 -26 -32 -25 -27 1 -33 4 -25 14 6 7 16 11 22 10 7 -1 12 6 12 15
0 9 4 20 8 24 11 12 8 24 -7 24 -8 0 -17 -11 -20 -25 -6 -25 -26 -35 -26 -13
0 6 -3 8 -7 4 -5 -4 -8 -20 -8 -34 0 -24 -5 -28 -40 -33 l-40 -5 29 -9 c18 -5
41 -4 58 3 16 6 30 6 34 1 11 -18 40 -8 63 22 14 17 36 35 49 40 14 6 22 15
19 23 -3 8 5 18 19 24 14 7 21 17 18 26 -3 8 2 17 14 20 11 4 19 14 18 24 0
10 5 16 13 14 9 -2 11 3 7 13 -3 9 0 18 9 21 16 7 9 34 -10 34 -12 0 -82 -96
-97 -132 -8 -21 -24 -23 -34 -6 -4 6 1 17 12 25 10 7 19 21 19 31 0 9 6 16 14
14 9 -2 11 3 7 13 -3 9 0 18 9 21 7 3 11 12 8 20 -3 8 -8 12 -12 9 -4 -2 -5 9
-3 26 5 32 4 33 -17 20z"/>
<path d="M3862 286 c-11 -18 -23 -44 -27 -56 -4 -13 -17 -33 -29 -44 -13 -12
-25 -29 -29 -38 -3 -10 -11 -18 -17 -18 -5 0 -10 -9 -10 -20 0 -11 -6 -20 -13
-20 -8 0 -20 -11 -27 -25 -7 -14 -17 -25 -21 -25 -5 0 -13 -9 -19 -20 -9 -17
-8 -20 14 -18 13 1 22 7 19 14 -2 6 3 14 12 18 9 3 13 11 10 16 -4 6 -1 9 5 8
7 -2 17 5 23 16 22 35 58 66 70 60 9 -5 9 -4 1 5 -9 10 -6 19 12 38 24 26 64
101 64 121 0 25 -19 20 -38 -12z"/>
<path d="M408 292 c-4 -16 -1 -20 13 -17 15 3 17 0 9 -21 -7 -19 -6 -24 5 -24
14 0 19 -12 16 -32 0 -4 10 -7 23 -6 16 2 22 6 16 13 -4 5 -20 33 -34 60 -14
28 -26 43 -26 35 0 -12 -2 -12 -9 -2 -6 11 -9 9 -13 -6z"/>
<path d="M168 293 c7 -3 16 -2 19 1 4 3 -2 6 -13 5 -11 0 -14 -3 -6 -6z"/>
<path d="M3076 284 c-9 -8 -16 -22 -16 -30 0 -8 -9 -23 -21 -35 -25 -25 -20
-33 12 -20 13 5 18 10 12 10 -8 1 -4 11 9 26 20 24 23 24 33 8 14 -25 34 -27
32 -3 -1 22 -13 26 -20 8 -4 -8 -6 -7 -6 4 -1 9 -7 19 -13 21 -10 4 -10 6 0 6
14 1 17 21 3 21 -5 0 -17 -7 -25 -16z"/>
<path d="M3928 261 c-10 -20 -18 -43 -18 -49 0 -7 -3 -12 -7 -12 -5 0 -26 -25
-47 -56 -22 -30 -45 -53 -52 -50 -8 3 -11 -1 -8 -9 3 -7 -3 -22 -13 -32 -26
-27 -52 -62 -33 -46 16 15 34 17 26 4 -4 -5 3 -7 13 -4 22 6 35 40 17 47 -6 2
-4 5 5 5 23 1 61 45 54 63 -4 9 -1 19 6 24 9 5 10 2 6 -9 -3 -10 -2 -17 3 -17
6 0 10 5 10 11 0 5 5 7 10 4 6 -3 10 3 10 15 0 12 -4 18 -10 15 -5 -3 -10 -1
-10 5 0 8 9 10 26 6 15 -4 23 -3 20 3 -8 13 4 42 15 35 5 -3 6 2 3 10 -4 9 -1
16 6 16 7 0 10 7 6 15 -3 8 0 15 6 15 7 0 6 5 -2 15 -18 22 -23 19 -42 -24z
m-83 -171 c-3 -5 -11 -10 -16 -10 -6 0 -7 5 -4 10 3 6 11 10 16 10 6 0 7 -4 4
-10z"/>
<path d="M3274 273 c-3 -10 -10 -26 -15 -36 -5 -10 -7 -22 -4 -27 3 -4 -1 -10
-7 -13 -22 -7 -4 -17 20 -10 19 4 20 8 10 20 -10 12 -9 17 2 27 16 12 22 56 8
56 -5 0 -11 -8 -14 -17z"/>
<path d="M3703 271 c-30 -25 -29 -36 1 -37 17 -1 23 2 19 12 -3 8 1 14 11 14
10 0 13 6 10 15 -8 19 -14 19 -41 -4z"/>
<path d="M2 222 c0 -40 3 -52 13 -48 9 3 12 -3 10 -20 -3 -26 10 -41 20 -24 5
8 11 7 21 -1 23 -19 18 15 -6 36 -11 10 -17 21 -15 25 3 5 2 10 -3 12 -4 1
-15 19 -24 38 l-17 35 1 -53z"/>
<path d="M3416 215 c-20 -22 -25 -23 -36 -10 -13 16 -28 16 -47 -2 -7 -6 -18
-13 -24 -15 -7 -2 -10 -10 -7 -18 3 -11 7 -11 18 2 13 13 16 12 27 -10 19 -36
16 -45 -12 -40 -14 3 -33 -1 -42 -8 -10 -7 -13 -14 -7 -14 5 0 15 5 22 12 9 9
13 7 18 -7 5 -12 1 -22 -11 -31 -11 -9 -15 -19 -11 -31 6 -15 10 -13 21 14 7
17 23 37 34 43 12 6 19 15 16 21 -4 5 -2 8 3 7 10 -3 12 1 12 21 0 5 -9 11
-20 14 -20 5 -29 37 -11 37 11 0 38 -25 43 -40 2 -6 11 -8 21 -5 9 4 14 11 11
16 -8 13 16 40 28 33 6 -4 5 3 -1 15 -15 27 -17 26 -45 -4z"/>
<path d="M3980 205 c-8 -19 -17 -35 -22 -35 -4 0 -8 -5 -8 -10 0 -21 -43 -68
-56 -63 -10 4 -13 -3 -10 -25 2 -21 -1 -29 -12 -28 -8 0 -18 -9 -23 -21 -6
-18 -5 -23 6 -23 8 0 15 4 15 10 0 5 6 7 14 4 9 -3 15 5 19 25 5 23 10 29 23
24 14 -5 16 -1 12 21 -4 21 -2 26 9 22 8 -3 19 -6 24 -6 14 0 11 -21 -6 -39
-8 -9 -23 -26 -35 -39 -24 -27 -13 -28 34 -4 29 14 35 22 34 49 -1 18 -7 34
-15 37 -7 3 -13 14 -13 25 0 13 5 18 13 15 10 -4 14 8 16 46 1 27 0 50 -2 50
-2 0 -9 -16 -17 -35z"/>
<path d="M604 208 c0 -10 6 -18 13 -18 8 0 16 -7 19 -15 4 -8 12 -15 20 -15 7
0 17 -8 23 -17 5 -10 12 -15 15 -12 10 10 -5 39 -20 39 -7 0 -16 11 -20 24 -4
17 -11 23 -22 19 -9 -4 -13 -2 -9 4 3 5 1 10 -6 10 -7 0 -13 -9 -13 -19z"/>
<path d="M699 228 c-8 -30 -3 -46 13 -43 13 3 18 -2 18 -21 0 -24 14 -32 25
-14 4 6 10 8 15 5 10 -6 25 13 17 21 -3 3 -14 1 -26 -5 -18 -10 -20 -8 -18 16
1 15 -2 28 -8 28 -5 0 -16 4 -22 8 -7 5 -13 7 -14 5z"/>
<path d="M3637 188 c-16 -22 -29 -48 -30 -58 -1 -10 -7 -16 -14 -13 -7 3 -13
0 -13 -6 0 -19 -67 -83 -75 -71 -10 17 -24 2 -18 -20 8 -29 26 -25 64 16 19
19 44 39 55 44 15 6 21 16 19 34 -3 23 0 25 20 20 20 -5 23 -3 18 16 -4 14 -8
18 -13 10 -5 -9 -9 -9 -14 -1 -10 15 36 32 47 17 5 -6 6 -1 2 12 -5 16 -2 22
9 22 9 0 16 4 16 9 0 5 -10 8 -22 8 -15 0 -33 -13 -51 -39z"/>
<path d="M85 178 c1 -13 5 -22 8 -20 4 1 7 4 7 7 0 3 0 12 0 20 0 8 -4 15 -8
15 -5 0 -8 -10 -7 -22z"/>
<path d="M885 187 c-12 -10 -14 -16 -7 -21 7 -4 12 -2 12 3 0 6 7 11 15 11 8
0 15 5 15 10 0 14 -13 13 -35 -3z"/>
<path d="M509 158 c4 -12 13 -24 19 -26 16 -5 3 36 -13 42 -11 4 -12 0 -6 -16z"/>
<path d="M3230 155 c0 -8 2 -15 4 -15 2 0 6 7 10 15 3 8 1 15 -4 15 -6 0 -10
-7 -10 -15z"/>
<path d="M3280 145 c0 -7 -8 -19 -17 -24 -10 -6 -13 -11 -7 -11 11 0 44 32 44
43 0 4 -4 7 -10 7 -5 0 -10 -7 -10 -15z"/>
<path d="M3310 149 c0 -5 5 -7 10 -4 6 3 10 8 10 11 0 2 -4 4 -10 4 -5 0 -10
-5 -10 -11z"/>
<path d="M3172 141 c-11 -7 -11 -9 1 -14 9 -3 18 1 21 9 6 16 -2 18 -22 5z"/>
<path d="M710 127 c0 -8 7 -14 15 -14 11 0 12 4 4 14 -6 7 -13 13 -15 13 -2 0
-4 -6 -4 -13z"/>
<path d="M375 120 c-3 -5 -1 -11 4 -14 5 -4 13 -1 17 6 5 8 10 4 15 -10 5 -12
15 -22 23 -22 9 0 13 -9 12 -25 -2 -13 0 -22 5 -20 4 3 14 -3 21 -14 7 -10 25
-18 40 -18 l27 0 -22 28 c-12 15 -26 28 -30 28 -4 1 -21 15 -38 32 -30 31 -64
45 -74 29z m125 -99 c0 -8 -10 -3 -25 13 -32 34 -32 42 0 19 13 -10 25 -24 25
-32z"/>
<path d="M477 108 c-3 -11 -3 -17 0 -14 10 9 44 -14 37 -26 -4 -7 1 -8 16 -3
20 6 22 4 17 -14 -3 -12 0 -21 6 -21 6 0 18 -7 28 -16 16 -15 20 -15 33 -1 14
13 14 16 0 21 -8 3 -13 9 -10 14 2 4 -4 8 -15 8 -10 0 -19 -4 -19 -8 0 -4 7
-8 15 -8 8 0 15 -5 15 -10 0 -19 -40 9 -40 28 -1 9 -18 29 -39 44 -38 26 -39
26 -44 6z"/>
<path d="M623 123 c9 -2 17 -11 17 -19 0 -8 7 -14 15 -14 8 0 15 4 15 10 0 11
-34 30 -52 29 -7 -1 -5 -3 5 -6z"/>
<path d="M890 119 c0 -5 5 -7 10 -4 6 3 10 8 10 11 0 2 -4 4 -10 4 -5 0 -10
-5 -10 -11z"/>
<path d="M956 118 c5 -8 2 -9 -9 -5 -10 3 -17 2 -17 -2 0 -5 7 -12 16 -15 22
-8 24 -8 24 8 0 8 6 17 13 19 6 3 2 6 -11 6 -15 1 -21 -3 -16 -11z"/>
<path d="M3080 121 c0 -5 -8 -12 -17 -14 -14 -4 -13 -5 4 -6 12 0 24 5 26 12
3 7 6 5 6 -5 1 -10 7 -18 15 -18 9 0 12 7 9 20 -5 20 -43 29 -43 11z"/>
<path d="M3205 120 c-8 -13 5 -13 25 0 13 8 13 10 -2 10 -9 0 -20 -4 -23 -10z"/>
<path d="M3018 113 c7 -3 16 -2 19 1 4 3 -2 6 -13 5 -11 0 -14 -3 -6 -6z"/>
<path d="M3138 113 c7 -3 16 -2 19 1 4 3 -2 6 -13 5 -11 0 -14 -3 -6 -6z"/>
<path d="M145 100 c3 -5 8 -10 11 -10 2 0 4 5 4 10 0 6 -5 10 -11 10 -5 0 -7
-4 -4 -10z"/>
<path d="M580 97 c0 -8 6 -14 13 -14 6 0 21 -4 32 -8 24 -10 19 -5 -17 18 -22
14 -28 14 -28 4z"/>
<path d="M2926 102 c-2 -4 7 -9 20 -10 15 -1 22 2 19 8 -7 12 -32 13 -39 2z"/>
<path d="M685 90 c3 -5 8 -10 11 -10 2 0 4 5 4 10 0 6 -5 10 -11 10 -5 0 -7
-4 -4 -10z"/>
<path d="M2860 90 c0 -5 10 -10 23 -10 18 0 19 2 7 10 -19 13 -30 13 -30 0z"/>
<path d="M3190 93 c0 -7 -3 -12 -7 -10 -5 1 -8 -2 -8 -8 0 -5 8 -10 18 -9 9 0
17 -3 17 -8 0 -13 28 -9 33 5 3 6 6 2 6 -10 1 -29 15 -29 35 -1 21 30 12 38
-36 32 -28 -3 -44 -1 -49 8 -7 10 -9 10 -9 1z"/>
<path d="M856 78 c3 -4 14 -8 25 -8 11 0 18 4 14 9 -3 6 -14 9 -25 8 -10 -1
-16 -5 -14 -9z"/>
<path d="M3020 76 c0 -21 20 -30 33 -17 8 8 6 11 -8 11 -17 0 -18 2 -5 10 13
8 12 10 -2 10 -10 0 -18 -6 -18 -14z"/>
<path d="M775 70 c-3 -5 1 -10 9 -10 8 0 18 5 21 10 3 6 -1 10 -9 10 -8 0 -18
-4 -21 -10z"/>
<path d="M3090 70 c-12 -8 -9 -10 13 -10 15 0 27 5 27 10 0 13 -20 13 -40 0z"/>
<path d="M930 66 c0 -9 30 -14 35 -6 4 6 -3 10 -14 10 -12 0 -21 -2 -21 -4z"/>
<path d="M995 60 l-20 -9 20 -1 c32 -3 69 -8 80 -11 16 -4 45 12 39 22 -9 15
-34 10 -28 -5 4 -11 0 -13 -15 -9 -11 3 -18 9 -15 14 7 11 -34 10 -61 -1z"/>
<path d="M1154 61 c-15 -10 -15 -31 -1 -37 7 -2 24 0 38 5 21 8 21 10 4 11
-15 0 -17 2 -7 9 11 6 9 9 -6 13 -11 3 -24 3 -28 -1z"/>
<path d="M2932 63 c-12 -2 -20 -9 -17 -14 4 -5 1 -9 -4 -9 -6 0 -11 5 -11 10
0 15 -32 12 -54 -5 -19 -15 -19 -15 3 -15 12 0 19 4 16 10 -3 6 -1 10 4 10 6
0 11 -6 11 -13 0 -9 10 -12 30 -9 17 2 30 8 30 13 0 5 5 9 11 9 5 0 7 -5 3
-12 -4 -7 -3 -8 4 -4 13 8 17 37 5 35 -5 -1 -18 -4 -31 -6z"/>
<path d="M690 49 c0 -5 5 -7 10 -4 6 3 10 8 10 11 0 2 -4 4 -10 4 -5 0 -10 -5
-10 -11z"/>
<path d="M2790 51 c0 -5 7 -11 15 -15 9 -3 15 0 15 9 0 8 -7 15 -15 15 -8 0
-15 -4 -15 -9z"/>
<path d="M3125 50 c-3 -5 3 -10 14 -10 12 0 21 5 21 10 0 6 -6 10 -14 10 -8 0
-18 -4 -21 -10z"/>
<path d="M360 46 c0 -2 7 -9 15 -16 9 -7 15 -8 15 -2 0 5 -7 12 -15 16 -8 3
-15 4 -15 2z"/>
<path d="M755 40 c-3 -5 1 -10 9 -10 9 0 16 5 16 10 0 6 -4 10 -9 10 -6 0 -13
-4 -16 -10z"/>
<path d="M2702 39 c-13 -5 -28 -7 -33 -3 -18 11 -29 -7 -13 -23 10 -10 18 -12
22 -6 11 15 39 22 48 13 5 -5 25 -5 44 0 l35 8 -33 1 c-19 1 -31 5 -27 11 8
12 -12 12 -43 -1z"/>
<path d="M2995 40 c3 -5 11 -10 16 -10 6 0 7 5 4 10 -3 6 -11 10 -16 10 -6 0
-7 -4 -4 -10z"/>
<path d="M3068 43 c7 -3 16 -2 19 1 4 3 -2 6 -13 5 -11 0 -14 -3 -6 -6z"/>
<path d="M3170 40 c0 -5 7 -10 15 -10 8 0 15 5 15 10 0 6 -7 10 -15 10 -8 0
-15 -4 -15 -10z"/>
<path d="M3583 44 c3 -4 2 -14 -3 -24 -8 -14 -5 -18 15 -18 14 0 25 4 25 9 0
9 -29 39 -37 39 -4 0 -3 -3 0 -6z"/>
<path d="M34 21 c0 -17 6 -20 34 -19 30 1 32 2 16 17 -13 13 -17 13 -21 3 -4
-10 -8 -9 -17 3 -10 15 -12 14 -12 -4z"/>
<path d="M660 21 c0 -5 -10 -12 -22 -14 -16 -3 -13 -5 10 -6 22 -1 31 3 26 10
-5 8 -1 8 14 0 31 -16 51 -13 28 4 -22 17 -56 20 -56 6z"/>
<path d="M820 15 c-11 -13 -8 -15 16 -14 16 0 23 3 16 6 -6 2 -10 9 -6 14 9
15 -13 10 -26 -6z"/>
<path d="M3096 15 c-4 -13 9 -15 84 -15 49 0 92 5 95 10 6 9 -17 15 -40 10
-41 -8 -105 -8 -105 0 0 16 -27 12 -34 -5z"/>
<path d="M740 10 c0 -5 5 -10 10 -10 6 0 10 5 10 10 0 6 -4 10 -10 10 -5 0
-10 -4 -10 -10z"/>
<path d="M2568 8 c9 -9 15 -9 24 0 9 9 7 12 -12 12 -19 0 -21 -3 -12 -12z"/>
<path d="M3028 3 c6 -2 18 -2 25 0 6 3 1 5 -13 5 -14 0 -19 -2 -12 -5z"/>
</g>
</svg>
